<?xml version="1.0" encoding="UTF-8"?>
<!DOCTYPE svg PUBLIC "-//W3C//DTD SVG 1.1//EN" "http://www.w3.org/Graphics/SVG/1.1/DTD/svg11.dtd">
<!-- Creator: CorelDRAW X7 -->
<svg xmlns="http://www.w3.org/2000/svg" xml:space="preserve" width="0.25in" height="0.25in" version="1.1" style="shape-rendering:geometricPrecision; text-rendering:geometricPrecision; image-rendering:optimizeQuality; fill-rule:evenodd; clip-rule:evenodd"
viewBox="0 0 31 31"
 xmlns:xlink="http://www.w3.org/1999/xlink">
 <defs>
  <style type="text/css">
   <![CDATA[
    .fil0 {fill:#00AEEC}
   ]]>
  </style>
 </defs>
 <g id="Layer_x0020_1">
  <metadata id="CorelCorpID_0Corel-Layer"/>
  <g id="_625642768">
   <g>
    <path class="fil0" d="M17 16l14 -14c0,0 0,-1 0,-2 -1,0 -1,0 -2,0l-13 14 -14 -14c0,0 -1,0 -2,0 0,1 0,2 0,2l14 14 -14 13c0,1 0,1 0,2 1,0 1,0 1,0 1,0 1,0 1,0l14 -14 13 14c0,0 1,0 1,0 0,0 1,0 1,0 0,-1 0,-1 0,-2l-14 -13z"/>
   </g>
  </g>
 </g>
</svg>
